<svg xmlns="http://www.w3.org/2000/svg" width="1024" height="1024" viewBox="0 0 1024 1024" version="1.1"><path d="M 475 281.544 C 457.762 284.165, 443.339 287.981, 428.500 293.846 C 416.646 298.531, 412.982 300.157, 404 304.716 C 368.439 322.765, 337.502 350.952, 314.633 386.139 C 308.293 395.894, 295.959 419.446, 294.020 425.500 C 293.316 427.700, 292.394 429.950, 291.973 430.500 C 291.551 431.050, 290.631 433.525, 289.928 436 C 289.225 438.475, 288.291 440.981, 287.853 441.568 C 287.415 442.156, 286.189 446.206, 285.129 450.568 C 284.069 454.931, 282.922 459.184, 282.581 460.021 C 281.453 462.791, 278.913 478.315, 277.513 491 C 275.048 513.335, 275.747 529.156, 280.448 557.443 C 281.265 562.361, 282.226 567.086, 282.583 567.943 C 282.941 568.799, 284.054 572.875, 285.057 577 C 294.026 613.869, 319.087 655.540, 350.634 686.038 C 363.461 698.438, 369.004 702.930, 382.431 711.808 C 408.089 728.771, 441.455 742.366, 467.956 746.655 C 473.205 747.505, 479.750 748.572, 482.500 749.027 C 489.228 750.140, 523.887 750.120, 532 748.999 C 547.585 746.845, 557.977 744.922, 564.500 742.984 C 582.803 737.546, 593.301 733.827, 602.500 729.522 C 613.370 724.435, 618.692 721.851, 620 721.026 C 620.825 720.506, 625.236 717.819, 629.803 715.056 C 659.837 696.884, 685.904 670.382, 707.561 636 C 712.740 627.777, 717.963 617.992, 720.906 611 C 722.642 606.875, 724.709 602.150, 725.498 600.500 C 727.366 596.598, 729.645 590.158, 734.521 575 C 735.317 572.525, 736.630 566.675, 737.439 562 C 738.247 557.325, 739.359 551.475, 739.910 549 C 742.659 536.642, 742.070 487.815, 739.030 476 C 738.535 474.075, 737.617 469.125, 736.990 465 C 734.136 446.201, 717.889 407.292, 704.421 387 C 696.014 374.334, 681.378 356.604, 671.366 346.959 C 648.890 325.308, 620.117 306.564, 594 296.560 C 588.775 294.559, 583.600 292.505, 582.500 291.996 C 577.803 289.822, 568.293 286.992, 560.683 285.503 C 556.182 284.623, 551.600 283.515, 550.500 283.042 C 543.457 280.014, 491.802 278.989, 475 281.544 M 487.085 347.009 C 482.456 347.496, 477.506 348.338, 476.085 348.881 C 474.663 349.423, 469.707 350.602, 465.072 351.500 C 460.436 352.398, 455.396 353.778, 453.871 354.567 C 452.347 355.355, 450.582 356, 449.951 356 C 447.384 356, 425.589 366.539, 418 371.450 C 401.455 382.156, 380.953 403.033, 371.118 419.190 C 365.529 428.371, 359.017 441.407, 355.217 451.020 C 351.991 459.183, 347.637 475.410, 348.211 477.132 C 348.685 478.554, 398.275 478.581, 406.722 477.164 C 410.145 476.590, 414.635 475.318, 416.701 474.338 C 420.010 472.767, 437.092 455.968, 455.562 436.118 C 463.420 427.673, 470.825 422.291, 477.798 419.958 C 482.793 418.286, 486.601 418.046, 508.514 418.025 C 544.449 417.989, 542.456 417.030, 575 450.027 C 587.375 462.574, 598.945 473.553, 600.711 474.425 C 607.981 478.016, 617.308 479, 644.065 479 C 664.087 479, 670.025 478.715, 670.111 477.750 C 670.410 474.373, 669.596 470.604, 666.394 460.548 C 656.276 428.769, 637.675 402.175, 611.500 382.066 C 587.459 363.597, 568.444 354.949, 536.500 347.957 C 530.507 346.645, 496.702 345.996, 487.085 347.009 M 484.500 455.850 C 480.155 457.263, 475.776 461.710, 472.822 467.711 C 470.307 472.819, 469.832 474.815, 470.249 478.519 C 471.464 489.299, 479.327 497.845, 488.874 498.762 C 497.720 499.612, 502.186 498.370, 507.938 493.460 C 510.812 491.007, 513.883 489, 514.762 489 C 516.637 489, 576.473 547.947, 580.646 553.904 C 582.914 557.144, 583.440 564.249, 581.664 567.683 C 578.238 574.308, 572.907 577.407, 563.507 578.236 L 560.515 578.500 559.820 583.388 C 558.487 592.778, 550.758 598.982, 539.395 599.784 L 533.290 600.215 531.623 603.993 C 529.444 608.932, 525.681 612.605, 519.508 615.819 C 515.160 618.083, 513.248 618.431, 505 618.463 L 495.500 618.500 489.533 614.624 C 482.603 610.121, 479.651 607.151, 472.395 597.376 C 468.681 592.372, 465.529 589.357, 461.804 587.246 C 458.631 585.449, 453.041 580.475, 447.894 574.871 C 432.238 557.824, 421.956 547.879, 418.487 546.430 C 415.750 545.286, 408.350 545, 381.532 545 L 348 545 348 546.863 C 348 553.840, 355.880 578.751, 361.961 591 C 375.175 617.615, 395.445 640.120, 420.896 656.433 C 430.055 662.304, 443.389 669.327, 448.500 670.973 C 450.700 671.681, 452.950 672.582, 453.500 672.975 C 454.050 673.368, 456.750 674.279, 459.500 675 C 462.250 675.721, 464.950 676.623, 465.500 677.005 C 466.050 677.388, 469.200 678.225, 472.500 678.865 C 475.800 679.505, 481.200 680.551, 484.500 681.188 C 487.800 681.826, 499.050 682.358, 509.500 682.372 C 532.087 682.402, 543.394 680.565, 563 673.678 C 589.486 664.375, 610.725 650.457, 629.506 630.095 C 648.137 609.896, 659.158 590.418, 666.339 565 C 669.162 555.009, 671 547.538, 671 546.057 C 671 545.338, 661.496 545, 641.272 545 L 611.544 545 567.832 501.250 C 538.479 471.871, 523.033 457.108, 520.810 456.306 C 517.302 455.042, 488.114 454.674, 484.500 455.850" stroke="none" fill="#f75c03" fill-rule="evenodd"/></svg>